grf
version=1
nRows=23
nColumns=46
inDegrees=yes
endheader
time	ground_force_1_vx	ground_force_1_vy	ground_force_1_vz	ground_force_1_px	ground_force_1_py	ground_force_1_pz	ground_moment_1_mx	ground_moment_1_my	ground_moment_1_mz	ground_force_2_vx	ground_force_2_vy	ground_force_2_vz	ground_force_2_px	ground_force_2_py	ground_force_2_pz	ground_moment_2_mx	ground_moment_2_my	ground_moment_2_mz	ground_force_3_vx	ground_force_3_vy	ground_force_3_vz	ground_force_3_px	ground_force_3_py	ground_force_3_pz	ground_moment_3_mx	ground_moment_3_my	ground_moment_3_mz	ground_force_4_vx	ground_force_4_vy	ground_force_4_vz	ground_force_4_px	ground_force_4_py	ground_force_4_pz	ground_moment_4_mx	ground_moment_4_my	ground_moment_4_mz	ground_force_5_vx	ground_force_5_vy	ground_force_5_vz	ground_force_5_px	ground_force_5_py	ground_force_5_pz	ground_moment_5_mx	ground_moment_5_my	ground_moment_5_mz
1.510000	0.000000	0.000000	0.000000	0.000000	0.000000	0.000000	0.000000	0.000000	0.000000	0.000000	0.000000	0.000000	0.000000	0.000000	0.000000	0.000000	0.000000	0.000000	0.000000	0.000000	0.000000	0.000000	0.000000	0.000000	0.000000	0.000000	0.000000	-1.017991	488.099163	11.676277	0.213112	0.000000	-0.892764	-0.000000	11.859215	0.000000	-1.637339	460.316588	2.086523	0.245152	0.000000	-1.601534	0.000000	-7.858552	-0.000000
1.510500	0.000000	0.000000	0.000000	0.000000	0.000000	0.000000	0.000000	0.000000	0.000000	0.000000	0.000000	0.000000	0.000000	0.000000	0.000000	0.000000	0.000000	0.000000	0.000000	0.000000	0.000000	0.000000	0.000000	0.000000	0.000000	0.000000	0.000000	-1.025776	488.073763	11.750142	0.213105	0.000000	-0.892784	-0.000000	11.863200	0.000000	-1.617241	460.249485	1.952204	0.245149	0.000000	-1.601519	0.000000	-7.858313	-0.000000
1.511000	0.000000	0.000000	0.000000	0.000000	0.000000	0.000000	0.000000	0.000000	0.000000	0.000000	0.000000	0.000000	0.000000	0.000000	0.000000	0.000000	0.000000	0.000000	0.000000	0.000000	0.000000	0.000000	0.000000	0.000000	0.000000	0.000000	0.000000	-1.033543	488.046331	11.822348	0.213098	0.000000	-0.892804	-0.000000	11.867022	0.000000	-1.595286	460.182906	1.816395	0.245146	0.000000	-1.601503	0.000000	-7.858124	-0.000000
1.511500	0.000000	0.000000	0.000000	0.000000	0.000000	0.000000	0.000000	0.000000	0.000000	0.000000	0.000000	0.000000	0.000000	0.000000	0.000000	0.000000	0.000000	0.000000	0.000000	0.000000	0.000000	0.000000	0.000000	0.000000	0.000000	0.000000	0.000000	-1.041246	488.016837	11.892981	0.213092	0.000000	-0.892823	-0.000000	11.870677	0.000000	-1.571462	460.117002	1.679054	0.245142	0.000000	-1.601487	0.000000	-7.857985	-0.000000
1.512000	0.000000	0.000000	0.000000	0.000000	0.000000	0.000000	0.000000	0.000000	0.000000	0.000000	0.000000	0.000000	0.000000	0.000000	0.000000	0.000000	0.000000	0.000000	0.000000	0.000000	0.000000	0.000000	0.000000	0.000000	0.000000	0.000000	0.000000	-1.048841	487.985249	11.962125	0.213085	0.000000	-0.892843	-0.000000	11.874164	0.000000	-1.545757	460.051930	1.540140	0.245138	0.000000	-1.601471	0.000000	-7.857898	-0.000000
1.512500	0.000000	0.000000	0.000000	0.000000	0.000000	0.000000	0.000000	0.000000	0.000000	0.000000	0.000000	0.000000	0.000000	0.000000	0.000000	0.000000	0.000000	0.000000	0.000000	0.000000	0.000000	0.000000	0.000000	0.000000	0.000000	0.000000	0.000000	-1.056289	487.951527	12.029864	0.213079	0.000000	-0.892862	-0.000000	11.877481	0.000000	-1.518163	459.987838	1.399613	0.245134	0.000000	-1.601454	0.000000	-7.857863	-0.000000
1.513000	0.000000	0.000000	0.000000	0.000000	0.000000	0.000000	0.000000	0.000000	0.000000	0.000000	0.000000	0.000000	0.000000	0.000000	0.000000	0.000000	0.000000	0.000000	0.000000	0.000000	0.000000	0.000000	0.000000	0.000000	0.000000	0.000000	0.000000	-1.063556	487.915628	12.096287	0.213073	0.000000	-0.892881	-0.000000	11.880626	0.000000	-1.488671	459.924858	1.257433	0.245129	0.000000	-1.601436	0.000000	-7.857883	-0.000000
1.513500	0.000000	0.000000	0.000000	0.000000	0.000000	0.000000	0.000000	0.000000	0.000000	0.000000	0.000000	0.000000	0.000000	0.000000	0.000000	0.000000	0.000000	0.000000	0.000000	0.000000	0.000000	0.000000	0.000000	0.000000	0.000000	0.000000	0.000000	-1.070616	487.877514	12.161481	0.213067	0.000000	-0.892900	-0.000000	11.883600	0.000000	-1.457278	459.863101	1.113564	0.245124	0.000000	-1.601418	0.000000	-7.857959	-0.000000
1.514000	0.000000	0.000000	0.000000	0.000000	0.000000	0.000000	0.000000	0.000000	0.000000	0.000000	0.000000	0.000000	0.000000	0.000000	0.000000	0.000000	0.000000	0.000000	0.000000	0.000000	0.000000	0.000000	0.000000	0.000000	0.000000	0.000000	0.000000	-1.077457	487.837154	12.225537	0.213062	0.000000	-0.892919	-0.000000	11.886404	0.000000	-1.423985	459.802665	0.967975	0.245118	0.000000	-1.601399	0.000000	-7.858093	-0.000000
1.514500	0.000000	0.000000	0.000000	0.000000	0.000000	0.000000	0.000000	0.000000	0.000000	0.000000	0.000000	0.000000	0.000000	0.000000	0.000000	0.000000	0.000000	0.000000	0.000000	0.000000	0.000000	0.000000	0.000000	0.000000	0.000000	0.000000	0.000000	-1.084079	487.794538	12.288542	0.213057	0.000000	-0.892937	-0.000000	11.889042	0.000000	-1.388797	459.743652	0.820652	0.245112	0.000000	-1.601380	0.000000	-7.858286	-0.000000
1.515000	0.000000	0.000000	0.000000	0.000000	0.000000	0.000000	0.000000	0.000000	0.000000	0.000000	0.000000	0.000000	0.000000	0.000000	0.000000	0.000000	0.000000	0.000000	0.000000	0.000000	0.000000	0.000000	0.000000	0.000000	0.000000	0.000000	0.000000	-1.090494	487.749672	12.350582	0.213052	0.000000	-0.892956	-0.000000	11.891522	0.000000	-1.351719	459.686176	0.671590	0.245105	0.000000	-1.601360	0.000000	-7.858538	-0.000000
1.515500	0.000000	0.000000	0.000000	0.000000	0.000000	0.000000	0.000000	0.000000	0.000000	0.000000	0.000000	0.000000	0.000000	0.000000	0.000000	0.000000	0.000000	0.000000	0.000000	0.000000	0.000000	0.000000	0.000000	0.000000	0.000000	0.000000	0.000000	-1.096718	487.702586	12.411736	0.213048	0.000000	-0.892974	-0.000000	11.893848	0.000000	-1.312754	459.630350	0.520799	0.245099	0.000000	-1.601340	0.000000	-7.858849	-0.000000
1.516000	0.000000	0.000000	0.000000	0.000000	0.000000	0.000000	0.000000	0.000000	0.000000	0.000000	0.000000	0.000000	0.000000	0.000000	0.000000	0.000000	0.000000	0.000000	0.000000	0.000000	0.000000	0.000000	0.000000	0.000000	0.000000	0.000000	0.000000	-1.102772	487.653329	12.472087	0.213044	0.000000	-0.892993	-0.000000	11.896027	0.000000	-1.271903	459.576283	0.368293	0.245091	0.000000	-1.601319	0.000000	-7.859218	-0.000000
1.516500	0.000000	0.000000	0.000000	0.000000	0.000000	0.000000	0.000000	0.000000	0.000000	0.000000	0.000000	0.000000	0.000000	0.000000	0.000000	0.000000	0.000000	0.000000	0.000000	0.000000	0.000000	0.000000	0.000000	0.000000	0.000000	0.000000	0.000000	-1.108678	487.601962	12.531710	0.213040	0.000000	-0.893011	-0.000000	11.898066	0.000000	-1.229163	459.524064	0.214099	0.245083	0.000000	-1.601297	0.000000	-7.859645	-0.000000
1.517000	0.000000	0.000000	0.000000	0.000000	0.000000	0.000000	0.000000	0.000000	0.000000	0.000000	0.000000	0.000000	0.000000	0.000000	0.000000	0.000000	0.000000	0.000000	0.000000	0.000000	0.000000	0.000000	0.000000	0.000000	0.000000	0.000000	0.000000	-1.114455	487.548553	12.590682	0.213036	0.000000	-0.893029	-0.000000	11.899973	0.000000	-1.184536	459.473773	0.058257	0.245075	0.000000	-1.601275	0.000000	-7.860127	-0.000000
1.517500	0.000000	0.000000	0.000000	0.000000	0.000000	0.000000	0.000000	0.000000	0.000000	0.000000	0.000000	0.000000	0.000000	0.000000	0.000000	0.000000	0.000000	0.000000	0.000000	0.000000	0.000000	0.000000	0.000000	0.000000	0.000000	0.000000	0.000000	-1.120124	487.493172	12.649074	0.213033	0.000000	-0.893047	-0.000000	11.901756	0.000000	-1.138030	459.425467	-0.099181	0.245067	0.000000	-1.601252	0.000000	-7.860662	-0.000000
1.518000	0.000000	0.000000	0.000000	0.000000	0.000000	0.000000	0.000000	0.000000	0.000000	0.000000	0.000000	0.000000	0.000000	0.000000	0.000000	0.000000	0.000000	0.000000	0.000000	0.000000	0.000000	0.000000	0.000000	0.000000	0.000000	0.000000	0.000000	-1.125702	487.435899	12.706964	0.213029	0.000000	-0.893065	-0.000000	11.903424	0.000000	-1.089657	459.379177	-0.258156	0.245057	0.000000	-1.601229	0.000000	-7.861249	-0.000000
1.518500	0.000000	0.000000	0.000000	0.000000	0.000000	0.000000	0.000000	0.000000	0.000000	0.000000	0.000000	0.000000	0.000000	0.000000	0.000000	0.000000	0.000000	0.000000	0.000000	0.000000	0.000000	0.000000	0.000000	0.000000	0.000000	0.000000	0.000000	-1.131203	487.376826	12.764434	0.213026	0.000000	-0.893083	-0.000000	11.904983	0.000000	-1.039437	459.334912	-0.418610	0.245048	0.000000	-1.601205	0.000000	-7.861887	-0.000000
1.519000	0.000000	0.000000	0.000000	0.000000	0.000000	0.000000	0.000000	0.000000	0.000000	0.000000	0.000000	0.000000	0.000000	0.000000	0.000000	0.000000	0.000000	0.000000	0.000000	0.000000	0.000000	0.000000	0.000000	0.000000	0.000000	0.000000	0.000000	-1.136641	487.316053	12.821570	0.213024	0.000000	-0.893100	-0.000000	11.906444	0.000000	-0.987390	459.292663	-0.580489	0.245038	0.000000	-1.601180	0.000000	-7.862577	-0.000000
1.519500	0.000000	0.000000	0.000000	0.000000	0.000000	0.000000	0.000000	0.000000	0.000000	0.000000	0.000000	0.000000	0.000000	0.000000	0.000000	0.000000	0.000000	0.000000	0.000000	0.000000	0.000000	0.000000	0.000000	0.000000	0.000000	0.000000	0.000000	-1.142026	487.253684	12.878461	0.213021	0.000000	-0.893118	-0.000000	11.907814	0.000000	-0.933540	459.252416	-0.743740	0.245027	0.000000	-1.601155	0.000000	-7.863321	-0.000000
1.520000	0.000000	0.000000	0.000000	0.000000	0.000000	0.000000	0.000000	0.000000	0.000000	0.000000	0.000000	0.000000	0.000000	0.000000	0.000000	0.000000	0.000000	0.000000	0.000000	0.000000	0.000000	0.000000	0.000000	0.000000	0.000000	0.000000	0.000000	-1.147370	487.189810	12.935196	0.213019	0.000000	-0.893135	-0.000000	11.909105	0.000000	-0.877914	459.214153	-0.908306	0.245016	0.000000	-1.601130	0.000000	-7.864122	-0.000000
1.520500	0.000000	0.000000	0.000000	0.000000	0.000000	0.000000	0.000000	0.000000	0.000000	0.000000	0.000000	0.000000	0.000000	0.000000	0.000000	0.000000	0.000000	0.000000	0.000000	0.000000	0.000000	0.000000	0.000000	0.000000	0.000000	0.000000	0.000000	-1.152679	487.124509	12.991864	0.213017	0.000000	-0.893153	-0.000000	11.910327	0.000000	-0.820532	459.177849	-1.074126	0.245005	0.000000	-1.601104	0.000000	-7.864983	-0.000000
1.521000	0.000000	0.000000	0.000000	0.000000	0.000000	0.000000	0.000000	0.000000	0.000000	0.000000	0.000000	0.000000	0.000000	0.000000	0.000000	0.000000	0.000000	0.000000	0.000000	0.000000	0.000000	0.000000	0.000000	0.000000	0.000000	0.000000	0.000000	-1.157960	487.057837	13.048560	0.213015	0.000000	-0.893170	-0.000000	11.911494	0.000000	-0.761412	459.143470	-1.241133	0.244993	0.000000	-1.601077	0.000000	-7.865904	-0.000000
